Coordinates
version=1
nRows=13
nColumns=18
inDegrees=yes

Units are S.I. units (second, meters, Newtons, ...)
Angles are in degrees.

endheader
time	ground_thorax_rot_x	ground_thorax_rot_y	ground_thorax_rot_z	ground_thorax_tx	ground_thorax_ty	ground_thorax_tz	clav_prot	clav_elev	scapula_abduction	scapula_elevation	scapula_upward_rot	scapula_winging	plane_elv	shoulder_elv	axial_rot	elbow_flexion	pro_sup
      7.03000000	      1.24905354	     -3.01032712	     -8.79176928	     -0.00423131	      0.00403036	     -0.00078352	    -29.22594319	     -3.39086606	    -24.00152807	     -3.79774992	     13.09561027	      4.64568541	    -27.41243111	     16.66701213	     27.12762372	      0.00000000	     34.32000000
      7.04000000	      1.15289523	     -2.99660787	     -8.88317193	     -0.00423131	      0.00403036	     -0.00078352	    -29.28648797	     -3.52110938	    -24.05210884	     -3.90765654	     13.11907469	      4.67282009	    -27.50657955	     16.52562767	     27.86446861	      0.00000000	     34.32000000
      7.05000000	      1.13829864	     -3.01530791	     -8.89991228	     -0.00423131	      0.00403036	     -0.00078352	    -29.28881458	     -3.50847161	    -24.05569397	     -3.89984165	     13.12534319	      4.66620135	    -27.50283920	     16.53555565	     27.87557179	      0.00000000	     34.32000000
      7.06000000	      1.40831025	     -3.05451342	     -8.81232460	     -0.00423131	      0.00403036	     -0.00078352	    -29.31749690	     -3.16856767	    -24.11380053	     -3.68170125	     13.27420682	      4.51294013	    -26.68220290	     16.64602847	     26.66093219	      0.00000000	     34.32000000
      7.07000000	      1.18859750	     -3.17112281	     -8.89987684	     -0.00423131	      0.00403036	     -0.00078352	    -29.21024369	     -3.41372454	    -23.89070424	     -3.84964236	     13.23081265	      4.62193317	    -27.70428596	     16.58615940	     27.63224283	      0.00000000	     34.32000000
      7.08000000	      1.20094653	     -3.21862035	     -8.89966696	     -0.00423131	      0.00403036	     -0.00078352	    -29.21709170	     -3.41309174	    -23.90121908	     -3.85010343	     13.23247494	      4.61986708	    -27.69434319	     16.59462186	     27.64825459	      0.00000000	     34.32000000
      7.09000000	      1.23677958	     -3.26180211	     -8.91964376	     -0.00423131	      0.00403036	     -0.00078352	    -29.23644130	     -3.39508799	    -23.91071559	     -3.85033108	     13.28033009	      4.59850449	    -27.65319699	     16.59280918	     27.50874927	      0.00000000	     34.32000000
      7.10000000	      1.51696962	     -3.33638278	     -8.88370975	     -0.00423131	      0.00403036	     -0.00078352	    -29.22978899	     -3.17151804	    -23.92613506	     -3.69618052	     13.34452401	      4.51090922	    -26.56654069	     16.86369627	     26.41481125	      0.00000000	     34.32000000
      7.11000000	      1.18103469	     -3.39653134	     -8.90562255	     -0.00423131	      0.00403036	     -0.00078352	    -29.13053982	     -3.48175948	    -23.77170291	     -3.88081237	     13.17362374	      4.67162215	    -27.82982371	     16.78257187	     26.96252219	      0.00000000	     34.32000000
      7.12000000	      1.19826805	     -3.42988583	     -8.93687821	     -0.00423131	      0.00403036	     -0.00078352	    -29.12923521	     -3.49761398	    -23.74909097	     -3.90022817	     13.20156601	      4.67021907	    -27.81904600	     16.84900736	     26.99743530	      0.00000000	     34.32000000
      7.13000000	      1.20443076	     -3.59319691	     -8.89202065	     -0.00423131	      0.00403036	     -0.00078352	    -28.90135018	     -3.50533621	    -23.42172383	     -3.86521031	     13.10760782	      4.73377243	    -27.91192280	     17.09088700	     26.48769359	      0.00000000	     34.32000000
      7.14000000	      1.21427173	     -3.47277736	     -8.93047331	     -0.00423131	      0.00403036	     -0.00078352	    -29.07219412	     -3.54425085	    -23.62121368	     -3.94072122	     13.23546240	      4.68603408	    -28.25264046	     16.93994835	     27.13934071	      0.00000000	     34.32000000
      7.15000000	      1.25429861	     -3.58810038	     -8.93797589	     -0.00423131	      0.00403036	     -0.00078352	    -28.97006155	     -3.52595904	    -23.40631570	     -3.94207999	     13.32155228	      4.67525118	    -28.55124794	     16.89213750	     27.93217775	      0.00000000	     34.32000000
